<?xml version="1.0" encoding="UTF-8"?>
<svg xmlns="http://www.w3.org/2000/svg" xmlns:xlink="http://www.w3.org/1999/xlink" width="211.8pt" height="212.09pt" viewBox="0 0 211.8 212.09" version="1.1">
<defs>
<clipPath id="clip1">
  <path d="M 0 1 L 195 1 L 195 212.089844 L 0 212.089844 Z M 0 1 "/>
</clipPath>
<clipPath id="clip2">
  <path d="M 15 72 L 41 72 L 41 105 L 15 105 Z M 15 72 "/>
</clipPath>
<clipPath id="clip3">
  <path d="M 30.828125 75.183594 C 29.292969 77.203125 28.972656 79.214844 29.351563 81.085938 C 29.6875 82.71875 31.421875 84.070313 34.515625 84.902344 C 32.839844 87.433594 30.09375 90.671875 26.175781 94.148438 C 23.101563 96.96875 19.789063 99.835938 16.714844 102.65625 C 15.921875 103.546875 15.734375 103.828125 15.785156 104.0625 L 15.832031 104.296875 C 16.066406 104.246094 16.71875 103.871094 17.371094 103.492188 C 21.898438 100.621094 24.277344 99.160156 24.699219 98.835938 C 26.796875 97.1875 29.082031 95.261719 31.457031 92.585938 C 33.414063 90.238281 35.136719 87.941406 36.292969 85.269531 C 37.652344 85.964844 38.730469 86.476563 39.292969 86.847656 C 40.082031 84.738281 40.542969 83.425781 40.398438 82.722656 C 39.789063 82.117188 38.710938 81.609375 37.164063 81.191406 C 37.4375 78.945313 37.523438 76.984375 37.191406 75.34375 C 36.855469 73.710938 35.914063 72.683594 34.933594 72.644531 C 34.628906 72.585938 34.316406 72.589844 34.003906 72.652344 C 33.019531 72.851563 31.988281 73.65625 30.828125 75.183594 M 31.496094 78.457031 C 31.449219 78.222656 31.632813 77.941406 32.003906 77.378906 C 32.660156 77 33.078125 76.675781 33.3125 76.625 C 34.011719 76.484375 34.578125 76.855469 35.046875 77.972656 C 35.425781 78.628906 35.382813 79.609375 35.339844 80.59375 C 32.761719 79.902344 31.636719 79.160156 31.496094 78.457031 "/>
</clipPath>
<clipPath id="clip4">
  <path d="M 155 57 L 179 57 L 179 83 L 155 83 Z M 155 57 "/>
</clipPath>
<clipPath id="clip5">
  <path d="M 170.777344 59.675781 C 169.292969 61.222656 168.828125 62.878906 168.964844 64.488281 C 169.085938 65.894531 170.410156 67.199219 172.925781 68.199219 C 171.269531 70.160156 168.648438 72.609375 165.019531 75.148438 C 162.160156 77.214844 159.097656 79.300781 156.238281 81.367188 C 155.488281 82.035156 155.304688 82.253906 155.320313 82.457031 L 155.339844 82.65625 C 155.539063 82.640625 156.125 82.386719 156.710938 82.132813 C 160.792969 80.167969 162.933594 79.171875 163.320313 78.9375 C 165.242188 77.761719 167.347656 76.363281 169.605469 74.351563 C 171.476563 72.574219 173.148438 70.808594 174.382813 68.679688 C 175.457031 69.398438 176.3125 69.933594 176.746094 70.300781 C 177.617188 68.605469 178.132813 67.550781 178.082031 66.945313 C 177.628906 66.378906 176.773438 65.84375 175.515625 65.34375 C 175.964844 63.484375 176.226563 61.84375 176.105469 60.433594 C 175.988281 59.03125 175.296875 58.074219 174.476563 57.945313 C 174.226563 57.867188 173.964844 57.839844 173.695313 57.863281 C 172.851563 57.933594 171.90625 58.507813 170.777344 59.675781 M 171.019531 62.492188 C 171.003906 62.289063 171.1875 62.070313 171.554688 61.636719 C 172.140625 61.382813 172.523438 61.148438 172.726563 61.132813 C 173.328125 61.078125 173.765625 61.445313 174.050781 62.433594 C 174.304688 63.019531 174.171875 63.839844 174.039063 64.660156 C 171.945313 63.828125 171.070313 63.09375 171.019531 62.492188 "/>
</clipPath>
<clipPath id="clip6">
  <path d="M 206 86 L 211.800781 86 L 211.800781 103 L 206 103 Z M 206 86 "/>
</clipPath>
<clipPath id="clip7">
  <path d="M 46 0 L 89 0 L 89 20 L 46 20 Z M 46 0 "/>
</clipPath>
<clipPath id="clip8">
  <path d="M 87.621094 0.109375 C 74.121094 5.207031 60.871094 10.046875 48.390625 14.632813 C 47.625 16.160156 47.113281 17.6875 46.859375 19.21875 C 62.144531 12.851563 75.648438 7.753906 87.113281 3.425781 C 87.367188 3.167969 87.878906 2.402344 88.386719 0.875 C 88.640625 0.367188 88.640625 0.109375 88.640625 0.109375 C 88.554688 0.0273438 88.472656 -0.00390625 88.378906 -0.00390625 C 88.1875 -0.00390625 87.960938 0.109375 87.621094 0.109375 "/>
</clipPath>
<clipPath id="clip9">
  <path d="M 131 102 L 146 102 L 146 112 L 131 112 Z M 131 102 "/>
</clipPath>
<clipPath id="clip10">
  <path d="M 144.640625 102.5625 C 140.144531 105.191406 135.71875 107.71875 131.554688 110.105469 C 131.375 110.695313 131.285156 111.269531 131.285156 111.828125 C 136.34375 108.636719 140.839844 106.007813 144.660156 103.773438 C 144.734375 103.664063 144.871094 103.363281 144.960938 102.785156 C 145.019531 102.589844 145.003906 102.5 145.003906 102.5 C 144.96875 102.476563 144.9375 102.46875 144.902344 102.476563 C 144.835938 102.488281 144.761719 102.539063 144.640625 102.5625 "/>
</clipPath>
</defs>
<g id="surface1">
<g clip-path="url(#clip1)" clip-rule="nonzero">
<path style=" stroke:none;fill-rule:nonzero;fill:rgb(0.799561%,1.199341%,1.199341%);fill-opacity:1;" d="M 158.089844 142.414063 C 157.988281 147.085938 159.695313 151.675781 162.121094 155.609375 C 165.34375 153.957031 168.917969 152.378906 171.003906 149.28125 C 171.6875 146.003906 170.285156 142.691406 168.675781 139.878906 C 167.320313 137.800781 165.199219 135.523438 162.457031 135.988281 C 159.824219 136.894531 158.03125 139.644531 158.089844 142.414063 Z M 20.609375 126.289063 C 19.164063 127.21875 16.707031 127.597656 16.707031 127.597656 C 13.679688 134.121094 10.265625 142.476563 10.632813 149.816406 C 10.671875 153.390625 12.085938 156.964844 14.496094 159.597656 C 16.335938 161.722656 19.453125 161.792969 22.007813 161.324219 C 27.210938 159.679688 30.601563 155.128906 34.195313 151.320313 C 41.320313 143.84375 50.664063 138.976563 60.21875 135.34375 C 71.003906 131.175781 82.273438 127.574219 91.597656 120.484375 C 87.3125 107.472656 75.972656 98.816406 65.871094 90.367188 C 49.21875 100.339844 38.273438 117.785156 20.609375 126.289063 Z M 21.007813 55.328125 C 18.679688 58.679688 16.117188 61.910156 14.394531 65.636719 C 12.472656 69.316406 11.089844 75.617188 13.683594 77.71875 C 14.441406 78.800781 17.460938 78.71875 20.292969 74.484375 C 19.757813 79.382813 15.113281 87.355469 11.425781 86.183594 C 10.472656 87.136719 5.125 98.410156 3.789063 103.417969 C 2.664063 108.375 2.707031 114.152344 5.996094 118.308594 C 9.105469 121.398438 14.4375 121.777344 18.089844 119.417969 C 33.828125 110.335938 45.972656 96.527344 59.28125 84.425781 C 46.507813 74.742188 33.800781 64.976563 21.007813 55.328125 Z M 116.535156 2.058594 C 120.121094 1.375 124.640625 2.585938 126.046875 6.285156 C 126.9375 11.007813 124.625 15.59375 122.347656 19.589844 C 117.078125 28.785156 108.960938 35.804688 102.441406 44.046875 C 102.113281 44.398438 101.753906 44.703125 101.363281 44.972656 C 101.726563 42.316406 103.164063 39.992188 104.496094 37.71875 C 109.222656 30.492188 116 24.953125 121.160156 18.074219 C 123.3125 15.492188 121.621094 10.691406 118.09375 10.589844 C 106.21875 10.03125 94.992188 14.535156 83.921875 18.179688 C 81.363281 19.1875 78.613281 19.617188 76.09375 20.734375 C 57.976563 27.964844 39.210938 34.136719 22.605469 44.589844 C 38.039063 55.519531 53.675781 66.160156 69.128906 77.066406 C 69.734375 77.457031 70.433594 78.277344 71.1875 77.714844 C 77.457031 74.554688 84.554688 73.199219 91.546875 73.597656 C 89.476563 62.972656 84.957031 52.820313 84.492188 41.894531 C 84.222656 38.117188 84.707031 33.988281 87.125 30.933594 C 89.722656 35.96875 92.144531 41.09375 94.617188 46.183594 C 93.339844 45.632813 92.050781 45.109375 90.71875 44.710938 C 91.070313 51.902344 92.628906 59.09375 95.683594 65.632813 C 98.136719 71.191406 102.675781 75.566406 107.71875 78.820313 C 109.140625 79.621094 109.164063 81.441406 109.285156 82.878906 C 109.277344 85.164063 109.523438 87.625 108.429688 89.722656 C 102.363281 83.738281 93.414063 80.746094 84.988281 82.34375 C 83.277344 82.71875 81.46875 83.019531 80.023438 84.078125 C 90.953125 92.667969 101.605469 101.625 112.023438 110.832031 C 116.136719 114.511719 120.222656 118.6875 125.589844 120.421875 C 123.605469 95.839844 119.390625 71.507813 117.164063 46.953125 C 116.679688 44.558594 118.074219 42.421875 119.125 40.390625 C 123.375 46.707031 127.136719 53.597656 128.480469 61.175781 C 126.898438 60.066406 125.492188 58.730469 123.894531 57.644531 C 125.890625 78.46875 129.277344 99.128906 131.382813 119.9375 C 131.441406 120.4375 131.503906 120.945313 131.695313 121.421875 C 134.929688 122.953125 138.59375 121.65625 141.632813 120.265625 C 143.773438 119.191406 146.023438 117.894531 147.324219 115.816406 C 146.472656 106.832031 145.421875 97.847656 144.136719 88.902344 C 141.691406 70.425781 139.203125 51.949219 136.734375 33.472656 C 135.984375 25.5625 134.058594 17.828125 133.34375 9.921875 C 133.550781 7.472656 134.382813 5.082031 135.40625 2.851563 C 139.050781 9.574219 143.628906 16.078125 144.964844 23.757813 C 143.296875 22.691406 141.863281 21.296875 140.183594 20.246094 C 140.015625 30.121094 142.144531 39.835938 143.269531 49.609375 C 145.875 68.664063 148.492188 87.71875 151.089844 106.78125 C 152.066406 112.457031 151.078125 118.753906 147.414063 123.332031 C 143.8125 127.523438 138.5 129.515625 133.429688 131.289063 C 133.925781 142.328125 134.398438 153.898438 129.953125 164.292969 C 130.195313 153.117188 129.171875 141.953125 127.640625 130.894531 C 119.652344 128.285156 113.390625 122.433594 107.527344 116.65625 C 99.523438 109.203125 91.757813 101.234375 82.328125 95.570313 C 82.054688 96.578125 83.113281 97.136719 83.652344 97.8125 C 88.46875 103.070313 92.78125 109.300781 93.726563 116.53125 C 93.882813 119.871094 93.96875 123.429688 92.40625 126.492188 C 90.535156 129.632813 87.402344 131.757813 84.246094 133.457031 C 75.175781 138.550781 64.738281 140.285156 55.3125 144.546875 C 49.058594 147.203125 43.195313 151.046875 38.804688 156.28125 C 38.191406 157.035156 37.402344 157.804688 37.453125 158.859375 C 37.183594 164.835938 38.078125 171.183594 41.582031 176.1875 C 44.550781 180.503906 49.453125 183.085938 54.464844 184.226563 C 61.589844 185.789063 69.238281 185.386719 76.074219 182.773438 C 78.117188 177.328125 79.875 171.75 82.582031 166.578125 C 81.058594 164.605469 78.890625 163.207031 77.476563 161.15625 C 77.523438 158.921875 79.339844 157.121094 80.824219 155.601563 C 81.613281 154.535156 82.777344 155.53125 83.6875 155.871094 C 88.40625 151.863281 93.050781 147.535156 96.171875 142.117188 C 92.054688 140.636719 92.703125 135.421875 94.605469 132.40625 C 95.441406 130.738281 98.070313 129.859375 99.265625 131.636719 C 101.761719 134.316406 100.570313 138.109375 100.324219 141.316406 C 101.667969 142.65625 103.050781 144.734375 101.304688 146.40625 C 100.152344 145.699219 99.410156 144.546875 98.386719 143.6875 C 94.394531 148.496094 89.769531 152.738281 85.105469 156.867188 C 86.269531 158.570313 88.328125 159.667969 89.101563 161.601563 C 88.273438 164.867188 85.320313 167.058594 83.746094 169.96875 C 81.867188 173.496094 80.191406 177.335938 80.164063 181.402344 C 92.648438 176.492188 104.742188 170.007813 114.539063 160.722656 C 115.171875 160.015625 116.359375 159.300781 115.769531 158.214844 C 113.019531 149.972656 108.769531 142.355469 105.246094 134.4375 C 104.570313 132.761719 103.328125 131.078125 103.792969 129.179688 C 104.132813 127.046875 104.375 124.558594 106.25 123.160156 C 109.726563 127.023438 113.199219 130.890625 116.660156 134.769531 C 116.839844 134.941406 117.160156 135.613281 116.628906 135.53125 C 114.863281 136.074219 113.558594 134.398438 111.878906 134.242188 C 112.632813 139.6875 116.285156 144.078125 118.007813 149.1875 C 119.503906 153.277344 119.824219 157.925781 118.171875 162.019531 C 116.433594 166.757813 112.835938 170.519531 109.097656 173.777344 C 100.230469 181.113281 89.664063 186.027344 79.007813 190.167969 C 78.328125 195.132813 79.5625 200.621094 83.03125 204.359375 C 85.378906 206.882813 89.277344 207.300781 92.265625 205.699219 C 102.03125 200.644531 107.792969 190.910156 114.945313 182.988281 C 119.746094 177.445313 125.761719 173.019531 132.320313 169.78125 C 140.503906 165.695313 149.242188 162.824219 157.296875 158.460938 C 155.277344 150.050781 153.125 140.488281 157.582031 132.46875 C 159.414063 128.695313 164.355469 126.65625 168.175781 128.644531 C 170.949219 130.726563 172.664063 133.984375 173.675781 137.242188 C 176.546875 145.359375 173.414063 154.621094 167.433594 160.5 C 166.699219 161.332031 165.640625 161.917969 165.128906 162.921875 C 166.789063 165.964844 169.832031 168.273438 173.222656 169.019531 C 179.714844 170.570313 186.570313 167.832031 191.199219 163.257813 C 189.175781 138.101563 185.542969 113.105469 182.5 88.054688 C 180.113281 69.484375 177.847656 50.890625 175.421875 32.335938 C 175.613281 30.03125 176.867188 28.007813 177.90625 25.996094 C 182.265625 32.40625 185.320313 39.691406 187.015625 47.242188 C 185.082031 46.671875 184.207031 44.753906 182.808594 43.484375 C 183.898438 64.5625 186.820313 85.488281 189.332031 106.429688 C 190.941406 120.113281 192.570313 133.789063 194.277344 147.460938 C 194.957031 152.019531 194.863281 156.703125 194.140625 161.25 C 193.324219 166.707031 190.664063 172.28125 185.570313 174.917969 C 180.535156 177.15625 174.503906 178.679688 169.238281 176.28125 C 164.929688 174.152344 162.515625 169.726563 160.324219 165.667969 C 149.960938 169.179688 140.050781 173.917969 130.316406 178.886719 C 119.917969 184.355469 113.34375 194.457031 105.652344 202.941406 C 102.164063 206.417969 99.21875 210.664063 93.988281 212.015625 C 93.988281 212.015625 88.28125 212.914063 82.921875 208.515625 C 78.246094 204.859375 76.453125 198.808594 75.84375 193.136719 C 75.914063 191.257813 73.679688 192.339844 72.5625 192.355469 C 62.925781 193.675781 51.726563 194.78125 43.617188 188.265625 C 35.738281 181.535156 34.695313 170.394531 34.753906 160.703125 C 30.9375 162.769531 28.304688 167.230469 23.59375 167.417969 C 15.5 167.667969 9.097656 160.167969 8.003906 152.617188 C 6.679688 143.78125 10.777344 135.488281 13.792969 127.449219 C 5.554688 125.917969 2.621094 119.769531 2.621094 119.769531 C -0.648438 114.851563 0.0664063 107.03125 0.0664063 107.03125 C 1.296875 99.820313 4.039063 92.925781 7.9375 86.734375 C 8.386719 85.910156 9.160156 85.023438 8.710938 84.042969 C 7.578125 80.679688 7.242188 77.015625 8.167969 73.558594 C 9.984375 65.921875 15.144531 59.714844 19.773438 53.589844 C 18.691406 48.738281 19.667969 43.636719 21.519531 39.097656 C 22.050781 37.546875 23.820313 37.125 25.066406 36.308594 C 53.488281 20.09375 84.78125 9.523438 116.535156 2.058594 "/>
</g>
<path style=" stroke:none;fill-rule:nonzero;fill:rgb(0.799561%,1.199341%,1.199341%);fill-opacity:1;" d="M 168.03125 75.800781 C 168.15625 75.675781 163.492188 42.195313 161.792969 28.003906 C 163.65625 28.710938 164.726563 30.597656 166.460938 31.542969 C 164.941406 23.609375 160.855469 16.53125 156.898438 9.605469 C 155.308594 11.75 154.589844 14.394531 154.238281 16.992188 C 158.09375 36.890625 165.855469 97.382813 166.507813 106.019531 C 170.566406 96.503906 169.328125 85.773438 168.03125 75.800781 "/>
<path style=" stroke:none;fill-rule:nonzero;fill:rgb(0.799561%,1.199341%,1.199341%);fill-opacity:1;" d="M 52.171875 155.871094 C 61.929688 151.867188 71.59375 147.648438 81.238281 143.382813 C 80.972656 145.503906 79.289063 147.257813 77.40625 148.140625 C 68.289063 152.492188 58.585938 155.664063 49.90625 160.898438 C 50.867188 162.558594 52.6875 164.121094 52.101563 166.246094 C 50.308594 166.617188 49.230469 164.980469 48.140625 163.871094 C 47.257813 160.683594 49.140625 157.113281 52.171875 155.871094 "/>
<path style=" stroke:none;fill-rule:nonzero;fill:rgb(0.799561%,1.199341%,1.199341%);fill-opacity:1;" d="M 98.238281 154.570313 C 97.789063 156.3125 97.351563 158.359375 98.128906 160.03125 C 100.117188 161.21875 102.472656 159.792969 104.0625 158.511719 C 102.964844 156.371094 100.792969 154.414063 98.238281 154.570313 Z M 97.964844 151.167969 C 101.242188 151.265625 104.882813 153.105469 105.742188 156.488281 C 106.375 159.417969 104.03125 162.007813 101.589844 163.242188 C 99.699219 163.96875 96.769531 163.585938 96.28125 161.238281 C 96.28125 157.828125 96.882813 154.402344 97.964844 151.167969 "/>
<path style=" stroke:none;fill-rule:nonzero;fill:rgb(0.799561%,1.199341%,1.199341%);fill-opacity:1;" d="M 125.011719 29.21875 C 124.625 30.730469 124.242188 32.507813 124.917969 33.960938 C 126.644531 34.992188 128.6875 33.753906 130.070313 32.640625 C 129.117188 30.78125 127.230469 29.082031 125.011719 29.21875 Z M 124.777344 26.261719 C 127.621094 26.351563 130.78125 27.945313 131.527344 30.882813 C 132.078125 33.425781 130.042969 35.675781 127.925781 36.746094 C 126.28125 37.375 123.738281 37.046875 123.3125 35.007813 C 123.3125 32.046875 123.835938 29.070313 124.777344 26.261719 "/>
<path style=" stroke:none;fill-rule:nonzero;fill:rgb(0.799561%,1.199341%,1.199341%);fill-opacity:1;" d="M 30.828125 75.183594 C 29.292969 77.203125 28.972656 79.214844 29.351563 81.085938 C 29.6875 82.71875 31.421875 84.070313 34.515625 84.902344 C 32.839844 87.433594 30.09375 90.671875 26.175781 94.148438 C 23.101563 96.96875 19.789063 99.835938 16.714844 102.65625 C 15.921875 103.546875 15.734375 103.828125 15.785156 104.0625 L 15.832031 104.296875 C 16.066406 104.246094 16.71875 103.871094 17.371094 103.492188 C 21.898438 100.621094 24.277344 99.160156 24.699219 98.835938 C 26.796875 97.1875 29.082031 95.261719 31.457031 92.585938 C 33.414063 90.238281 35.136719 87.941406 36.292969 85.269531 C 37.652344 85.964844 38.730469 86.476563 39.292969 86.847656 C 40.082031 84.738281 40.542969 83.425781 40.398438 82.722656 C 39.789063 82.117188 38.710938 81.609375 37.164063 81.191406 C 37.4375 78.945313 37.523438 76.984375 37.191406 75.34375 C 36.855469 73.710938 35.914063 72.683594 34.933594 72.644531 C 34.628906 72.585938 34.316406 72.589844 34.003906 72.652344 C 33.019531 72.851563 31.988281 73.65625 30.828125 75.183594 M 31.496094 78.457031 C 31.449219 78.222656 31.632813 77.941406 32.003906 77.378906 C 32.660156 77 33.078125 76.675781 33.3125 76.625 C 34.011719 76.484375 34.578125 76.855469 35.046875 77.972656 C 35.425781 78.628906 35.382813 79.609375 35.339844 80.59375 C 32.761719 79.902344 31.636719 79.160156 31.496094 78.457031 "/>
<g clip-path="url(#clip2)" clip-rule="nonzero">
<g clip-path="url(#clip3)" clip-rule="nonzero">
<path style=" stroke:none;fill-rule:nonzero;fill:rgb(0.799561%,1.199341%,1.199341%);fill-opacity:1;" d="M 10.359375 77.480469 L 38.171875 71.800781 L 43.644531 98.617188 L 15.832031 104.296875 L 10.359375 77.480469 "/>
</g>
</g>
<path style=" stroke:none;fill-rule:nonzero;fill:rgb(0.799561%,1.199341%,1.199341%);fill-opacity:1;" d="M 170.777344 59.675781 C 169.292969 61.222656 168.828125 62.878906 168.964844 64.488281 C 169.085938 65.894531 170.410156 67.199219 172.925781 68.199219 C 171.269531 70.160156 168.648438 72.609375 165.019531 75.148438 C 162.160156 77.214844 159.097656 79.300781 156.238281 81.367188 C 155.488281 82.035156 155.304688 82.253906 155.320313 82.457031 L 155.339844 82.65625 C 155.539063 82.640625 156.125 82.386719 156.710938 82.132813 C 160.792969 80.167969 162.933594 79.171875 163.320313 78.9375 C 165.242188 77.761719 167.347656 76.363281 169.605469 74.351563 C 171.476563 72.574219 173.148438 70.808594 174.382813 68.679688 C 175.457031 69.398438 176.3125 69.933594 176.746094 70.300781 C 177.617188 68.605469 178.132813 67.550781 178.082031 66.945313 C 177.628906 66.378906 176.773438 65.84375 175.515625 65.34375 C 175.964844 63.484375 176.226563 61.84375 176.105469 60.433594 C 175.988281 59.03125 175.296875 58.074219 174.476563 57.945313 C 174.226563 57.867188 173.964844 57.839844 173.695313 57.863281 C 172.851563 57.933594 171.90625 58.507813 170.777344 59.675781 M 171.019531 62.492188 C 171.003906 62.289063 171.1875 62.070313 171.554688 61.636719 C 172.140625 61.382813 172.523438 61.148438 172.726563 61.132813 C 173.328125 61.078125 173.765625 61.445313 174.050781 62.433594 C 174.304688 63.019531 174.171875 63.839844 174.039063 64.660156 C 171.945313 63.828125 171.070313 63.09375 171.019531 62.492188 "/>
<g clip-path="url(#clip4)" clip-rule="nonzero">
<g clip-path="url(#clip5)" clip-rule="nonzero">
<path style=" stroke:none;fill-rule:nonzero;fill:rgb(0.799561%,1.199341%,1.199341%);fill-opacity:1;" d="M 153.363281 59.601563 L 177.277344 57.554688 L 179.25 80.609375 L 155.339844 82.65625 L 153.363281 59.601563 "/>
</g>
</g>
<path style=" stroke:none;fill-rule:nonzero;fill:rgb(0.799561%,1.199341%,1.199341%);fill-opacity:1;" d="M 99.65625 57.324219 C 101.191406 56.898438 102.816406 57.34375 104.433594 58.84375 C 106.191406 60.304688 107.6875 62.4375 109.058594 65.207031 C 109.136719 65.484375 109.175781 65.625 109.214844 65.761719 C 109.355469 65.722656 109.355469 65.722656 109.355469 65.722656 C 109.316406 65.585938 109.414063 65.40625 109.339844 65.128906 C 109.113281 63.242188 109.109375 60.539063 108.972656 56.828125 C 109.386719 54.011719 110.191406 52.585938 111.445313 52.234375 C 112 52.078125 112.8125 52.304688 113.601563 52.984375 C 114.355469 53.523438 114.789063 54.003906 114.90625 54.421875 C 115.019531 54.839844 115 55.296875 115.015625 55.890625 C 114.96875 56.804688 114.808594 57.300781 114.527344 57.378906 C 114.390625 57.417969 114.035156 57.214844 113.320313 56.8125 C 112.746094 56.375 112.253906 56.210938 111.695313 56.367188 C 110.582031 56.679688 110.308594 59.457031 110.730469 64.738281 C 110.933594 67.085938 110.945313 68.730469 110.800781 69.824219 C 110.535156 70.496094 110.375 70.992188 110.097656 71.070313 C 109.957031 71.109375 109.738281 70.867188 109.546875 70.171875 C 109.3125 69.335938 108.289063 67.820313 106.578125 65.449219 C 104.765625 63.253906 103.71875 62.195313 103.300781 62.3125 C 103.023438 62.390625 102.882813 62.429688 102.820313 62.746094 C 102.722656 62.921875 102.621094 63.101563 102.203125 63.21875 C 101.644531 63.371094 100.972656 63.109375 100.082031 62.609375 C 99.050781 62.144531 98.617188 61.667969 98.503906 61.25 C 98.464844 61.109375 98.585938 60.476563 98.832031 59.207031 C 99.21875 57.898438 99.519531 57.363281 99.65625 57.324219 "/>
<path style=" stroke:none;fill-rule:nonzero;fill:rgb(0.799561%,1.199341%,1.199341%);fill-opacity:1;" d="M 63.695313 54.832031 C 65.226563 54.40625 66.851563 54.851563 68.472656 56.351563 C 70.230469 57.8125 71.722656 59.945313 73.097656 62.714844 C 73.175781 62.992188 73.214844 63.132813 73.253906 63.269531 C 73.390625 63.234375 73.390625 63.234375 73.390625 63.234375 C 73.351563 63.09375 73.453125 62.914063 73.375 62.636719 C 73.148438 60.75 73.144531 58.050781 73.011719 54.335938 C 73.425781 51.519531 74.226563 50.09375 75.480469 49.742188 C 76.039063 49.589844 76.851563 49.8125 77.640625 50.492188 C 78.390625 51.03125 78.824219 51.511719 78.941406 51.929688 C 79.058594 52.347656 79.035156 52.804688 79.050781 53.398438 C 79.007813 54.3125 78.84375 54.808594 78.566406 54.886719 C 78.425781 54.925781 78.070313 54.722656 77.359375 54.320313 C 76.785156 53.882813 76.289063 53.71875 75.734375 53.875 C 74.621094 54.1875 74.34375 56.964844 74.769531 62.246094 C 74.972656 64.59375 74.980469 66.238281 74.835938 67.332031 C 74.574219 68.003906 74.410156 68.5 74.132813 68.578125 C 73.992188 68.617188 73.777344 68.378906 73.582031 67.679688 C 73.347656 66.847656 72.328125 65.332031 70.613281 62.957031 C 68.800781 60.761719 67.753906 59.703125 67.335938 59.820313 C 67.058594 59.898438 66.917969 59.9375 66.859375 60.253906 C 66.757813 60.429688 66.65625 60.609375 66.238281 60.726563 C 65.683594 60.882813 65.011719 60.617188 64.117188 60.117188 C 63.089844 59.652344 62.65625 59.175781 62.539063 58.757813 C 62.5 58.617188 62.625 57.984375 62.871094 56.714844 C 63.253906 55.40625 63.554688 54.871094 63.695313 54.832031 "/>
<path style=" stroke:none;fill-rule:nonzero;fill:rgb(0.799561%,1.199341%,1.199341%);fill-opacity:1;" d="M 32.566406 124.902344 C 34.09375 124.476563 35.722656 124.925781 37.339844 126.421875 C 39.097656 127.882813 40.59375 130.015625 41.964844 132.785156 C 42.042969 133.0625 42.082031 133.203125 42.121094 133.34375 C 42.261719 133.304688 42.261719 133.304688 42.261719 133.304688 C 42.222656 133.164063 42.324219 132.984375 42.246094 132.707031 C 42.019531 130.820313 42.015625 128.121094 41.878906 124.40625 C 42.292969 121.589844 43.097656 120.164063 44.351563 119.816406 C 44.90625 119.660156 45.71875 119.882813 46.511719 120.5625 C 47.261719 121.105469 47.695313 121.582031 47.8125 122 C 47.925781 122.417969 47.90625 122.875 47.921875 123.472656 C 47.875 124.382813 47.714844 124.878906 47.433594 124.957031 C 47.296875 124.996094 46.941406 124.796875 46.226563 124.394531 C 45.65625 123.953125 45.160156 123.792969 44.601563 123.945313 C 43.488281 124.257813 43.214844 127.035156 43.636719 132.320313 C 43.839844 134.664063 43.851563 136.3125 43.703125 137.402344 C 43.441406 138.074219 43.28125 138.570313 43.003906 138.648438 C 42.863281 138.6875 42.644531 138.449219 42.453125 137.753906 C 42.21875 136.917969 41.195313 135.402344 39.484375 133.027344 C 37.667969 130.832031 36.625 129.773438 36.207031 129.890625 C 35.929688 129.96875 35.789063 130.007813 35.726563 130.324219 C 35.628906 130.503906 35.527344 130.679688 35.109375 130.796875 C 34.550781 130.953125 33.878906 130.691406 32.988281 130.1875 C 31.957031 129.726563 31.523438 129.246094 31.40625 128.828125 C 31.371094 128.6875 31.492188 128.054688 31.738281 126.785156 C 32.125 125.476563 32.425781 124.941406 32.566406 124.902344 "/>
<path style=" stroke:none;fill-rule:nonzero;fill:rgb(0.799561%,1.199341%,1.199341%);fill-opacity:1;" d="M 55.796875 165.8125 C 57.328125 165.386719 58.953125 165.832031 60.570313 167.332031 C 62.328125 168.792969 63.824219 170.925781 65.199219 173.695313 C 65.277344 173.972656 65.316406 174.113281 65.351563 174.253906 C 65.492188 174.214844 65.492188 174.214844 65.492188 174.214844 C 65.453125 174.074219 65.554688 173.894531 65.476563 173.617188 C 65.25 171.730469 65.246094 169.027344 65.109375 165.316406 C 65.527344 162.5 66.328125 161.074219 67.582031 160.726563 C 68.140625 160.570313 68.953125 160.792969 69.742188 161.472656 C 70.492188 162.015625 70.925781 162.492188 71.042969 162.910156 C 71.160156 163.328125 71.136719 163.785156 71.152344 164.378906 C 71.105469 165.292969 70.945313 165.789063 70.667969 165.867188 C 70.527344 165.90625 70.171875 165.703125 69.460938 165.304688 C 68.886719 164.863281 68.390625 164.699219 67.835938 164.855469 C 66.71875 165.167969 66.445313 167.945313 66.867188 173.230469 C 67.074219 175.574219 67.082031 177.222656 66.9375 178.3125 C 66.671875 178.984375 66.511719 179.480469 66.234375 179.558594 C 66.09375 179.597656 65.878906 179.359375 65.683594 178.660156 C 65.449219 177.824219 64.425781 176.3125 62.714844 173.9375 C 60.902344 171.742188 59.855469 170.683594 59.4375 170.800781 C 59.160156 170.878906 59.019531 170.917969 58.960938 171.234375 C 58.859375 171.410156 58.757813 171.589844 58.339844 171.707031 C 57.785156 171.863281 57.109375 171.601563 56.21875 171.097656 C 55.191406 170.636719 54.757813 170.15625 54.640625 169.738281 C 54.601563 169.597656 54.722656 168.964844 54.96875 167.695313 C 55.355469 166.386719 55.65625 165.851563 55.796875 165.8125 "/>
<path style=" stroke:none;fill-rule:nonzero;fill:rgb(0.799561%,1.199341%,1.199341%);fill-opacity:1;" d="M 137.898438 183.023438 C 139.429688 182.597656 141.054688 183.042969 142.671875 184.542969 C 144.429688 186.003906 145.925781 188.136719 147.300781 190.90625 C 147.378906 191.183594 147.414063 191.324219 147.453125 191.460938 C 147.59375 191.421875 147.59375 191.421875 147.59375 191.421875 C 147.554688 191.285156 147.65625 191.105469 147.578125 190.828125 C 147.351563 188.941406 147.347656 186.238281 147.214844 182.527344 C 147.628906 179.710938 148.429688 178.285156 149.683594 177.933594 C 150.238281 177.777344 151.054688 178.003906 151.84375 178.683594 C 152.59375 179.222656 153.027344 179.703125 153.144531 180.121094 C 153.261719 180.539063 153.238281 180.996094 153.253906 181.589844 C 153.210938 182.503906 153.046875 183 152.769531 183.074219 C 152.628906 183.113281 152.273438 182.914063 151.5625 182.511719 C 150.988281 182.074219 150.492188 181.910156 149.9375 182.066406 C 148.820313 182.378906 148.546875 185.15625 148.96875 190.4375 C 149.175781 192.78125 149.183594 194.429688 149.039063 195.523438 C 148.777344 196.195313 148.613281 196.691406 148.335938 196.769531 C 148.195313 196.808594 147.980469 196.566406 147.785156 195.871094 C 147.550781 195.035156 146.527344 193.519531 144.816406 191.148438 C 143.003906 188.953125 141.957031 187.894531 141.539063 188.011719 C 141.261719 188.089844 141.121094 188.128906 141.0625 188.445313 C 140.960938 188.621094 140.859375 188.800781 140.441406 188.917969 C 139.886719 189.070313 139.210938 188.808594 138.320313 188.308594 C 137.292969 187.84375 136.859375 187.363281 136.742188 186.949219 C 136.703125 186.808594 136.824219 186.175781 137.070313 184.90625 C 137.457031 183.597656 137.757813 183.0625 137.898438 183.023438 "/>
<path style=" stroke:none;fill-rule:nonzero;fill:rgb(0.799561%,1.199341%,1.199341%);fill-opacity:1;" d="M 50.984375 46.46875 C 50.984375 46.3125 51.140625 46.15625 51.140625 46 C 51.296875 46 51.296875 46 51.296875 46 C 51.453125 46.15625 51.453125 46.3125 51.296875 46.46875 C 50.515625 50.992188 49.109375 53.332031 47.394531 53.332031 C 45.367188 53.332031 44.429688 51.617188 44.429688 48.339844 C 44.429688 44.28125 45.523438 40.070313 47.863281 35.542969 C 48.488281 34.449219 48.796875 33.984375 48.957031 33.984375 C 48.957031 34.140625 48.796875 34.761719 48.488281 35.855469 C 46.925781 40.382813 46.144531 43.65625 46.144531 45.375 C 46.144531 48.027344 46.769531 49.277344 48.175781 49.277344 C 48.957031 49.277344 49.890625 48.339844 50.984375 46.46875 "/>
<path style=" stroke:none;fill-rule:nonzero;fill:rgb(0.799561%,1.199341%,1.199341%);fill-opacity:1;" d="M 68.792969 41.925781 C 68.792969 41.769531 68.949219 41.613281 68.949219 41.457031 C 69.105469 41.457031 69.105469 41.457031 69.105469 41.457031 C 69.261719 41.613281 69.261719 41.769531 69.105469 41.925781 C 68.328125 46.449219 66.921875 48.789063 65.207031 48.789063 C 63.175781 48.789063 62.242188 47.074219 62.242188 43.796875 C 62.242188 39.738281 63.332031 35.527344 65.671875 31 C 66.296875 29.90625 66.609375 29.441406 66.765625 29.441406 C 66.765625 29.597656 66.609375 30.21875 66.296875 31.3125 C 64.738281 35.839844 63.957031 39.113281 63.957031 40.832031 C 63.957031 43.484375 64.582031 44.734375 65.984375 44.734375 C 66.765625 44.734375 67.703125 43.796875 68.792969 41.925781 "/>
<path style=" stroke:none;fill-rule:nonzero;fill:rgb(0.799561%,1.199341%,1.199341%);fill-opacity:1;" d="M 102.125 29.113281 C 102.125 28.980469 102.257813 28.84375 102.257813 28.710938 C 102.394531 28.710938 102.394531 28.710938 102.394531 28.710938 C 102.527344 28.84375 102.527344 28.980469 102.394531 29.113281 C 101.71875 33.03125 100.503906 35.058594 99.015625 35.058594 C 97.261719 35.058594 96.449219 33.574219 96.449219 30.734375 C 96.449219 27.222656 97.394531 23.578125 99.421875 19.660156 C 99.960938 18.714844 100.234375 18.308594 100.367188 18.308594 C 100.367188 18.445313 100.234375 18.984375 99.960938 19.929688 C 98.609375 23.847656 97.9375 26.683594 97.9375 28.171875 C 97.9375 30.464844 98.476563 31.546875 99.691406 31.546875 C 100.367188 31.546875 101.179688 30.734375 102.125 29.113281 "/>
<path style=" stroke:none;fill-rule:nonzero;fill:rgb(0.799561%,1.199341%,1.199341%);fill-opacity:1;" d="M 153.445313 47.5 C 153.425781 47.367188 153.542969 47.214844 153.523438 47.082031 C 153.65625 47.0625 153.65625 47.0625 153.65625 47.0625 C 153.808594 47.179688 153.828125 47.3125 153.714844 47.464844 C 153.578125 51.4375 152.648438 53.609375 151.175781 53.8125 C 149.4375 54.050781 148.433594 52.691406 148.046875 49.878906 C 147.566406 46.402344 148.007813 42.65625 149.480469 38.5 C 149.886719 37.492188 150.097656 37.050781 150.234375 37.035156 C 150.25 37.167969 150.191406 37.722656 150.050781 38.695313 C 149.246094 42.761719 148.964844 45.664063 149.167969 47.136719 C 149.480469 49.410156 150.164063 50.40625 151.367188 50.242188 C 152.035156 50.148438 152.730469 49.234375 153.445313 47.5 "/>
<path style=" stroke:none;fill-rule:nonzero;fill:rgb(0.799561%,1.199341%,1.199341%);fill-opacity:1;" d="M 137.792969 81.351563 C 137.761719 81.207031 137.871094 81.03125 137.84375 80.890625 C 137.984375 80.859375 137.984375 80.859375 137.984375 80.859375 C 138.160156 80.96875 138.191406 81.113281 138.078125 81.289063 C 138.277344 85.617188 137.457031 88.0625 135.875 88.40625 C 134.003906 88.820313 132.792969 87.425781 132.128906 84.40625 C 131.308594 80.664063 131.460938 76.5625 132.703125 71.914063 C 133.058594 70.78125 133.25 70.285156 133.394531 70.257813 C 133.425781 70.398438 133.410156 71.007813 133.34375 72.074219 C 132.820313 76.5625 132.765625 79.742188 133.113281 81.324219 C 133.648438 83.769531 134.476563 84.796875 135.773438 84.511719 C 136.492188 84.351563 137.164063 83.300781 137.792969 81.351563 "/>
<path style=" stroke:none;fill-rule:nonzero;fill:rgb(0.799561%,1.199341%,1.199341%);fill-opacity:1;" d="M 178.675781 95.050781 C 178.660156 94.90625 178.792969 94.746094 178.78125 94.597656 C 178.925781 94.585938 178.925781 94.585938 178.925781 94.585938 C 179.085938 94.71875 179.101563 94.863281 178.96875 95.023438 C 178.621094 99.34375 177.503906 101.664063 175.890625 101.8125 C 173.984375 101.988281 172.957031 100.453125 172.675781 97.375 C 172.324219 93.5625 172.992188 89.507813 174.800781 85.054688 C 175.296875 83.972656 175.546875 83.507813 175.695313 83.492188 C 175.707031 83.640625 175.613281 84.238281 175.414063 85.292969 C 174.339844 89.679688 173.886719 92.828125 174.035156 94.441406 C 174.261719 96.933594 174.953125 98.054688 176.273438 97.933594 C 177.007813 97.867188 177.808594 96.90625 178.675781 95.050781 "/>
<path style=" stroke:none;fill-rule:nonzero;fill:rgb(0.799561%,1.199341%,1.199341%);fill-opacity:1;" d="M 185.023438 152.335938 C 185.007813 152.1875 185.140625 152.027344 185.128906 151.882813 C 185.277344 151.867188 185.277344 151.867188 185.277344 151.867188 C 185.4375 152 185.449219 152.148438 185.316406 152.308594 C 184.972656 156.628906 183.851563 158.949219 182.238281 159.097656 C 180.332031 159.269531 179.304688 157.738281 179.023438 154.65625 C 178.675781 150.84375 179.339844 146.792969 181.152344 142.335938 C 181.644531 141.257813 181.894531 140.789063 182.042969 140.777344 C 182.054688 140.921875 181.964844 141.523438 181.765625 142.574219 C 180.6875 146.964844 180.234375 150.109375 180.382813 151.722656 C 180.609375 154.21875 181.304688 155.335938 182.625 155.214844 C 183.355469 155.148438 184.15625 154.1875 185.023438 152.335938 "/>
<g clip-path="url(#clip6)" clip-rule="nonzero">
<path style=" stroke:none;fill-rule:nonzero;fill:rgb(0.799561%,1.199341%,1.199341%);fill-opacity:1;" d="M 211.480469 96.703125 C 211.460938 96.578125 211.566406 96.433594 211.546875 96.304688 C 211.675781 96.285156 211.675781 96.285156 211.675781 96.285156 C 211.820313 96.394531 211.839844 96.519531 211.730469 96.664063 C 211.652344 100.40625 210.804688 102.464844 209.421875 102.675781 C 207.785156 102.921875 206.824219 101.652344 206.425781 99.011719 C 205.929688 95.738281 206.296875 92.210938 207.632813 88.277344 C 208.003906 87.320313 208.199219 86.902344 208.324219 86.886719 C 208.34375 87.011719 208.292969 87.53125 208.175781 88.453125 C 207.46875 92.289063 207.238281 95.027344 207.445313 96.410156 C 207.769531 98.550781 208.425781 99.480469 209.558594 99.308594 C 210.1875 99.214844 210.828125 98.34375 211.480469 96.703125 "/>
</g>
<path style=" stroke:none;fill-rule:nonzero;fill:rgb(0.799561%,1.199341%,1.199341%);fill-opacity:1;" d="M 117.152344 99.539063 C 117.140625 99.402344 117.261719 99.257813 117.25 99.121094 C 117.382813 99.109375 117.382813 99.109375 117.382813 99.109375 C 117.53125 99.230469 117.542969 99.367188 117.421875 99.515625 C 117.105469 103.492188 116.074219 105.628906 114.589844 105.765625 C 112.832031 105.925781 111.886719 104.515625 111.628906 101.679688 C 111.308594 98.167969 111.917969 94.433594 113.585938 90.332031 C 114.039063 89.339844 114.273438 88.910156 114.40625 88.894531 C 114.421875 89.03125 114.335938 89.585938 114.152344 90.554688 C 113.160156 94.59375 112.742188 97.492188 112.878906 98.976563 C 113.089844 101.273438 113.726563 102.304688 114.941406 102.191406 C 115.617188 102.128906 116.355469 101.246094 117.152344 99.539063 "/>
<path style=" stroke:none;fill-rule:nonzero;fill:rgb(0.799561%,1.199341%,1.199341%);fill-opacity:1;" d="M 27.195313 143.632813 C 27.183594 143.496094 27.304688 143.351563 27.292969 143.214844 C 27.429688 143.203125 27.429688 143.203125 27.429688 143.203125 C 27.574219 143.324219 27.589844 143.460938 27.464844 143.609375 C 27.148438 147.585938 26.117188 149.722656 24.632813 149.859375 C 22.878906 150.019531 21.929688 148.609375 21.671875 145.773438 C 21.351563 142.261719 21.964844 138.527344 23.628906 134.425781 C 24.085938 133.433594 24.316406 133.003906 24.453125 132.988281 C 24.464844 133.125 24.378906 133.679688 24.195313 134.648438 C 23.203125 138.6875 22.785156 141.585938 22.921875 143.070313 C 23.132813 145.367188 23.773438 146.398438 24.988281 146.285156 C 25.660156 146.222656 26.398438 145.339844 27.195313 143.632813 "/>
<path style=" stroke:none;fill-rule:nonzero;fill:rgb(0.799561%,1.199341%,1.199341%);fill-opacity:1;" d="M 32.257813 175.890625 C 32.25 175.78125 32.347656 175.660156 32.339844 175.550781 C 32.449219 175.542969 32.449219 175.542969 32.449219 175.542969 C 32.566406 175.640625 32.578125 175.753906 32.476563 175.871094 C 32.21875 179.109375 31.382813 180.847656 30.171875 180.960938 C 28.742188 181.089844 27.972656 179.941406 27.761719 177.632813 C 27.5 174.777344 28 171.738281 29.355469 168.398438 C 29.726563 167.589844 29.914063 167.242188 30.027344 167.230469 C 30.035156 167.339844 29.964844 167.789063 29.816406 168.578125 C 29.007813 171.867188 28.671875 174.226563 28.78125 175.433594 C 28.953125 177.304688 29.472656 178.140625 30.460938 178.050781 C 31.011719 178 31.609375 177.28125 32.257813 175.890625 "/>
<path style=" stroke:none;fill-rule:nonzero;fill:rgb(0.799561%,1.199341%,1.199341%);fill-opacity:1;" d="M 70.863281 203.355469 C 70.855469 203.242188 70.953125 203.125 70.945313 203.015625 C 71.054688 203.003906 71.054688 203.003906 71.054688 203.003906 C 71.175781 203.105469 71.183594 203.214844 71.085938 203.335938 C 70.828125 206.570313 69.988281 208.308594 68.78125 208.421875 C 67.351563 208.550781 66.582031 207.402344 66.371094 205.09375 C 66.109375 202.238281 66.605469 199.199219 67.964844 195.863281 C 68.332031 195.050781 68.523438 194.703125 68.632813 194.691406 C 68.640625 194.800781 68.574219 195.253906 68.421875 196.042969 C 67.613281 199.328125 67.277344 201.6875 67.386719 202.894531 C 67.558594 204.765625 68.078125 205.605469 69.066406 205.511719 C 69.617188 205.464844 70.214844 204.742188 70.863281 203.355469 "/>
<path style=" stroke:none;fill-rule:nonzero;fill:rgb(0.799561%,1.199341%,1.199341%);fill-opacity:1;" d="M 165.320313 185.953125 C 165.308594 185.824219 165.429688 185.679688 165.417969 185.546875 C 165.550781 185.53125 165.550781 185.53125 165.550781 185.53125 C 165.695313 185.652344 165.707031 185.785156 165.589844 185.929688 C 165.277344 189.84375 164.261719 191.945313 162.800781 192.078125 C 161.074219 192.234375 160.144531 190.847656 159.890625 188.058594 C 159.574219 184.605469 160.175781 180.9375 161.816406 176.902344 C 162.261719 175.925781 162.492188 175.503906 162.625 175.492188 C 162.636719 175.625 162.554688 176.167969 162.371094 177.121094 C 161.394531 181.09375 160.988281 183.941406 161.121094 185.402344 C 161.328125 187.660156 161.953125 188.671875 163.152344 188.5625 C 163.8125 188.503906 164.539063 187.632813 165.320313 185.953125 "/>
<path style=" stroke:none;fill-rule:nonzero;fill:rgb(0.799561%,1.199341%,1.199341%);fill-opacity:1;" d="M 147.628906 146.507813 C 147.507813 147.503906 147.132813 148.125 146.757813 148.5 C 145.515625 149.246094 142.53125 151.234375 138.054688 154.34375 C 137.929688 154.46875 137.679688 154.59375 137.433594 154.839844 C 137.308594 154.71875 137.308594 154.71875 137.308594 154.59375 L 137.558594 152.976563 C 137.558594 152.601563 138.304688 151.855469 139.796875 150.738281 C 138.054688 150.113281 137.183594 149.367188 137.183594 148.375 C 137.183594 147.253906 137.558594 146.261719 138.550781 145.140625 C 140.292969 142.902344 141.785156 141.90625 143.027344 141.90625 C 144.023438 141.90625 144.644531 142.40625 144.644531 143.648438 C 144.644531 144.394531 144.273438 145.140625 143.773438 146.136719 C 143.648438 146.386719 143.402344 146.261719 143.277344 146.011719 C 143.027344 145.265625 142.53125 145.015625 142.035156 145.015625 C 141.535156 145.015625 141.039063 145.140625 140.417969 145.636719 C 139.921875 146.011719 139.546875 146.386719 139.546875 146.632813 C 139.546875 147.007813 139.921875 147.378906 140.664063 147.753906 C 141.410156 148.125 141.910156 148.375 142.40625 148.375 C 142.78125 148.375 143.527344 148.125 144.519531 147.503906 C 145.265625 147.007813 145.890625 146.507813 146.636719 146.136719 C 147.257813 145.761719 147.507813 145.636719 147.628906 145.761719 C 147.753906 145.761719 147.753906 146.011719 147.628906 146.507813 "/>
<path style=" stroke:none;fill-rule:nonzero;fill:rgb(0.799561%,1.199341%,1.199341%);fill-opacity:1;" d="M 64.972656 114.363281 L 67.570313 108.992188 C 67.746094 108.648438 67.917969 108.472656 68.265625 108.472656 C 68.609375 108.472656 69.996094 109.339844 72.59375 111.074219 C 75.195313 112.804688 76.40625 113.84375 76.40625 114.191406 C 76.40625 115.230469 75.367188 117.65625 73.117188 121.292969 C 72.769531 121.8125 72.421875 121.988281 72.25 121.640625 C 69.996094 120.082031 67.398438 118.347656 64.625 116.441406 C 63.761719 118.695313 62.71875 120.429688 61.855469 121.988281 C 61.507813 122.335938 61.335938 122.507813 60.988281 122.335938 C 58.390625 120.253906 55.789063 118.523438 53.191406 116.789063 C 53.019531 116.789063 53.019531 116.617188 53.191406 116.269531 L 56.308594 109.515625 C 56.65625 109.167969 56.832031 108.992188 57.003906 108.992188 C 57.351563 108.992188 58.5625 109.6875 60.816406 111.246094 C 62.894531 112.632813 64.28125 113.671875 64.972656 114.363281 "/>
<path style=" stroke:none;fill-rule:nonzero;fill:rgb(0.799561%,1.199341%,1.199341%);fill-opacity:1;" d="M 167.609375 111.542969 L 170.210938 106.171875 C 170.382813 105.824219 170.554688 105.652344 170.902344 105.652344 C 171.25 105.652344 172.636719 106.519531 175.234375 108.25 C 177.832031 109.984375 179.046875 111.023438 179.046875 111.367188 C 179.046875 112.40625 178.007813 114.835938 175.753906 118.472656 C 175.40625 118.992188 175.0625 119.164063 174.886719 118.816406 C 172.636719 117.257813 170.035156 115.527344 167.265625 113.621094 C 166.398438 115.871094 165.359375 117.605469 164.492188 119.164063 C 164.144531 119.511719 163.972656 119.683594 163.625 119.511719 C 161.027344 117.433594 158.429688 115.699219 155.828125 113.96875 C 155.65625 113.96875 155.65625 113.792969 155.828125 113.449219 L 158.949219 106.691406 C 159.296875 106.34375 159.46875 106.171875 159.640625 106.171875 C 159.988281 106.171875 161.199219 106.863281 163.453125 108.425781 C 165.53125 109.808594 166.917969 110.847656 167.609375 111.542969 "/>
<path style=" stroke:none;fill-rule:nonzero;fill:rgb(0.799561%,1.199341%,1.199341%);fill-opacity:1;" d="M 87.621094 0.109375 C 74.121094 5.207031 60.871094 10.046875 48.390625 14.632813 C 47.625 16.160156 47.113281 17.6875 46.859375 19.21875 C 62.144531 12.851563 75.648438 7.753906 87.113281 3.425781 C 87.367188 3.167969 87.878906 2.402344 88.386719 0.875 C 88.640625 0.367188 88.640625 0.109375 88.640625 0.109375 C 88.554688 0.0273438 88.472656 -0.00390625 88.378906 -0.00390625 C 88.1875 -0.00390625 87.960938 0.109375 87.621094 0.109375 "/>
<g clip-path="url(#clip7)" clip-rule="nonzero">
<g clip-path="url(#clip8)" clip-rule="nonzero">
<path style=" stroke:none;fill-rule:nonzero;fill:rgb(0.799561%,1.199341%,1.199341%);fill-opacity:1;" d="M 46.859375 -0.00390625 L 88.640625 -0.00390625 L 88.640625 19.21875 L 46.859375 19.21875 L 46.859375 -0.00390625 "/>
</g>
</g>
<path style=" stroke:none;fill-rule:nonzero;fill:rgb(0.799561%,1.199341%,1.199341%);fill-opacity:1;" d="M 144.640625 102.5625 C 140.144531 105.191406 135.71875 107.71875 131.554688 110.105469 C 131.375 110.695313 131.285156 111.269531 131.285156 111.828125 C 136.34375 108.636719 140.839844 106.007813 144.660156 103.773438 C 144.734375 103.664063 144.871094 103.363281 144.960938 102.785156 C 145.019531 102.589844 145.003906 102.5 145.003906 102.5 C 144.96875 102.476563 144.9375 102.46875 144.902344 102.476563 C 144.835938 102.488281 144.761719 102.539063 144.640625 102.5625 "/>
<g clip-path="url(#clip9)" clip-rule="nonzero">
<g clip-path="url(#clip10)" clip-rule="nonzero">
<path style=" stroke:none;fill-rule:nonzero;fill:rgb(0.799561%,1.199341%,1.199341%);fill-opacity:1;" d="M 130.125 104.988281 L 144.996094 102.460938 L 146.160156 109.300781 L 131.285156 111.828125 L 130.125 104.988281 "/>
</g>
</g>
<path style=" stroke:none;fill-rule:nonzero;fill:rgb(13.699341%,12.199402%,12.5%);fill-opacity:1;" d="M 193.085938 63.675781 C 192.894531 60.65625 192.28125 58.359375 191.464844 56.546875 C 191.390625 55.382813 191.925781 52.78125 193.300781 48.726563 C 193.503906 48.246094 193.71875 48 193.953125 47.984375 C 194.183594 47.972656 194.433594 48.1875 194.710938 48.871094 C 195.234375 49.769531 196.339844 52.5 198.496094 57.03125 C 200.667969 61.792969 202.023438 64.738281 202.328125 65.886719 C 202.605469 66.570313 202.652344 67.265625 202.679688 67.730469 C 202.769531 69.128906 201.550781 68.269531 198.8125 65.644531 C 198.550781 65.195313 198.335938 65.441406 198.378906 66.140625 C 198.394531 66.371094 199.683594 75.625 202.019531 93.910156 C 204.585938 112.183594 205.933594 122.367188 206.085938 124.691406 C 206.542969 131.894531 205.765625 138.015625 204.015625 143.492188 C 203.625 144.683594 203.4375 145.398438 203.003906 145.890625 C 202.828125 146.835938 202.597656 146.851563 202.335938 146.402344 C 202.289063 145.703125 202.230469 144.773438 202.34375 142.898438 C 202.429688 140.558594 202.484375 137.757813 202.277344 134.503906 C 202.082031 131.480469 200.398438 119.6875 197.652344 98.625 C 194.921875 77.796875 193.234375 66 193.085938 63.675781 "/>
</g>
</svg>
